<?xml version="1.0" encoding="utf-8"?><svg width="300" height="300" viewBox="0 0 300 300" xmlns="http://www.w3.org/2000/svg" xmlns:xlink="http://www.w3.org/1999/xlink"><view id="angle-left" viewBox="0 0 150 150"/><svg width="150" height="150" viewBox="0 0 150 150"><path d="M1203 544q0 13-10 23L800 960l393 393q10 10 10 23t-10 23l-50 50q-10 10-23 10t-23-10L631 983q-10-10-10-23t10-23l466-466q10-10 23-10t23 10l50 50q10 10 10 23z"/></svg><view id="angle-right" viewBox="150 0 150 150"/><svg width="150" height="150" viewBox="0 0 150 150" x="150"><path d="M1171 960q0 13-10 23l-466 466q-10 10-23 10t-23-10l-50-50q-10-10-10-23t10-23l393-393-393-393q-10-10-10-23t10-23l50-50q10-10 23-10t23 10l466 466q10 10 10 23z"/></svg><view id="search" viewBox="0 150 150 150"/><svg width="150" height="150" viewBox="0 0 150 150" y="150"><path d="M1216 832q0-185-131.5-316.5T768 384 451.5 515.5 320 832t131.5 316.5T768 1280t316.5-131.5T1216 832zm512 832q0 52-38 90t-90 38q-54 0-90-38l-343-342q-179 124-399 124-143 0-273.5-55.5t-225-150-150-225T64 832t55.5-273.5 150-225 225-150T768 128t273.5 55.5 225 150 150 225T1472 832q0 220-124 399l343 343q37 37 37 90z"/></svg></svg>